<?xml version="1.0" standalone="no"?>
<!DOCTYPE svg PUBLIC "-//W3C//DTD SVG 20010904//EN"
 "http://www.w3.org/TR/2001/REC-SVG-20010904/DTD/svg10.dtd">
<svg version="1.0" xmlns="http://www.w3.org/2000/svg"
 width="473.000000pt" height="473.000000pt" viewBox="0 0 473.000000 473.000000"
 preserveAspectRatio="xMidYMid meet">
<metadata>
Created by potrace 1.11, written by Peter Selinger 2001-2013
</metadata>
<g transform="translate(0.000000,473.000000) scale(0.100000,-0.100000)"
fill="#000000" stroke="none">
<path d="M182 3835 c-63 -29 -117 -83 -146 -145 -29 -64 -28 -179 2 -237 99
-190 332 -224 473 -70 76 83 96 216 47 312 -54 105 -141 160 -258 164 -51 1
-76 -4 -118 -24z m187 -130 c72 -37 100 -133 60 -204 -25 -45 -85 -81 -135
-81 -74 0 -144 71 -144 147 0 121 114 193 219 138z m91 -289 c0 -2 -7 -7 -16
-10 -8 -3 -12 -2 -9 4 6 10 25 14 25 6z"/>
<path d="M719 3844 c-5 -7 -8 -125 -7 -280 l3 -269 58 0 c43 -1 60 3 66 15 4
8 7 61 7 117 -1 99 -1 101 17 85 11 -9 39 -46 63 -82 84 -125 92 -132 159
-135 65 -2 85 2 85 17 0 6 -39 62 -87 125 -49 63 -94 123 -102 133 -12 18 -5
30 78 132 50 62 91 120 91 130 0 18 -8 20 -65 20 -67 0 -71 -2 -116 -62 -24
-33 -52 -70 -63 -83 -10 -12 -25 -32 -33 -44 -8 -13 -18 -21 -22 -19 -4 3 -6
48 -6 101 1 53 -3 99 -8 102 -18 11 -109 8 -118 -3z m308 -459 c0 -8 -4 -12
-9 -9 -4 3 -8 9 -8 15 0 5 4 9 8 9 5 0 9 -7 9 -15z m-234 -23 c11 -24 11 -29
0 -29 -7 0 -13 7 -13 14 0 8 -4 12 -9 9 -5 -3 -11 1 -14 8 -3 8 -1 17 6 20 7
2 13 5 14 5 1 1 8 -12 16 -27z m282 7 c11 -16 1 -19 -13 -3 -7 8 -8 14 -3 14
5 0 13 -5 16 -11z"/>
<path d="M1417 3768 c-127 -269 -207 -445 -207 -455 0 -16 19 -20 74 -18 49 2
52 4 81 60 9 17 21 19 108 20 54 1 101 -2 105 -5 5 -3 14 -20 21 -37 8 -18 20
-34 27 -34 43 -4 101 -5 111 -1 16 5 16 7 -116 292 -150 322 -140 314 -204
178z m89 -227 l23 -51 -49 0 c-28 0 -50 4 -50 10 0 14 43 100 48 95 2 -2 15
-27 28 -54z m162 -194 c8 -10 6 -13 -7 -13 -11 0 -17 6 -14 13 3 7 6 13 8 13
1 0 7 -6 13 -13z"/>
<path d="M1839 3848 c-4 -58 -1 -537 4 -545 3 -5 32 -9 64 -8 l58 1 3 149 3
149 158 -157 c106 -106 163 -156 173 -152 13 5 15 46 15 281 1 165 -3 277 -9
280 -13 8 -107 9 -114 1 -4 -3 -6 -67 -6 -141 0 -99 -3 -134 -12 -129 -6 3
-40 35 -76 69 -36 34 -101 96 -145 138 -75 71 -114 92 -116 64z"/>
<path d="M2647 3828 c-17 -38 -77 -167 -114 -248 -14 -30 -48 -102 -75 -159
-27 -58 -47 -110 -44 -116 2 -6 28 -11 62 -10 58 0 59 1 81 40 l22 40 101 0
101 1 22 -41 c21 -38 24 -40 75 -41 28 0 57 3 62 6 12 7 -16 75 -139 340 -92
196 -106 220 -125 220 -8 0 -21 -15 -29 -32z m63 -284 c11 -26 20 -48 20 -50
0 -2 -22 -4 -50 -4 -27 0 -50 2 -50 5 0 14 43 95 51 95 4 0 17 -21 29 -46z
m163 -197 c3 -7 -3 -13 -14 -13 -13 0 -15 3 -7 13 6 7 12 13 13 13 2 0 5 -6 8
-13z"/>
<path d="M3187 3846 c-153 -55 -233 -217 -181 -369 19 -57 83 -131 136 -158
67 -34 129 -39 226 -18 46 10 91 24 98 30 10 9 14 42 14 130 0 106 -2 119 -17
120 -90 3 -167 -1 -172 -10 -3 -5 -5 -30 -3 -55 4 -43 6 -46 34 -46 25 0 29
-4 26 -22 -3 -21 -8 -23 -55 -22 -134 3 -202 124 -129 232 48 70 118 87 199
45 37 -18 59 -10 93 34 l28 36 -33 27 c-64 54 -183 74 -264 46z"/>
<path d="M3761 3778 c-21 -46 -62 -132 -90 -192 -28 -59 -51 -110 -51 -112 0
-2 -18 -40 -39 -84 -45 -92 -43 -98 43 -95 49 1 51 3 81 60 9 18 21 20 108 20
54 0 101 -2 105 -5 4 -3 14 -21 23 -40 16 -35 18 -36 73 -35 30 0 59 5 64 10
6 6 -16 66 -58 155 -154 333 -189 400 -205 400 -11 0 -30 -29 -54 -82z m79
-224 c11 -26 20 -50 20 -55 0 -5 -20 -9 -45 -9 -25 0 -45 4 -45 10 0 10 42
100 47 100 1 0 11 -21 23 -46z m170 -213 c0 -4 -6 -8 -14 -8 -8 0 -12 6 -9 14
5 13 23 9 23 -6z"/>
<path d="M4179 3848 c-3 -59 0 -539 5 -546 4 -7 82 -9 118 -3 5 0 8 49 7 109
0 59 0 125 0 147 l1 39 160 -158 c130 -130 162 -157 174 -147 11 9 14 61 14
282 0 261 -1 271 -20 278 -20 7 -82 6 -103 -3 -7 -2 -11 -51 -10 -139 1 -119
-1 -134 -15 -126 -8 5 -78 69 -155 144 -129 124 -174 155 -176 123z"/>
<path d="M670 3117 c-3 -3 -24 -7 -47 -10 -248 -34 -493 -250 -586 -515 -27
-77 -31 -102 -33 -219 -3 -106 1 -145 16 -202 80 -288 292 -494 580 -561 29
-7 104 -13 165 -13 202 -1 347 52 483 176 65 61 57 85 -63 199 -86 82 -100 86
-166 49 -100 -56 -166 -75 -256 -75 -74 1 -89 4 -157 37 -257 128 -315 475
-113 680 134 135 315 158 483 60 89 -53 111 -58 137 -37 63 54 177 181 177
199 0 12 -17 37 -37 57 -121 114 -283 173 -490 177 -48 1 -91 0 -93 -2z m300
-141 c0 -2 -7 -7 -16 -10 -8 -3 -12 -2 -9 4 6 10 25 14 25 6z m17 -38 c-2 -7
-10 -13 -18 -13 -8 0 -20 -4 -27 -9 -20 -12 -25 0 -7 18 19 19 59 22 52 4z
m-7 -52 c0 -2 -7 -9 -15 -16 -12 -10 -15 -10 -15 4 0 9 7 16 15 16 8 0 15 -2
15 -4z m-333 -22 c-3 -3 -12 -4 -19 -1 -8 3 -5 6 6 6 11 1 17 -2 13 -5z"/>
<path d="M2274 3089 c-14 -15 -17 -41 -17 -142 0 -174 -9 -166 184 -169 l154
-3 0 -557 c0 -556 0 -557 21 -579 20 -20 32 -21 159 -21 108 1 141 4 153 16
13 12 15 93 16 578 l1 563 157 3 c151 2 158 3 170 25 17 30 18 263 2 285 -11
15 -58 17 -498 18 -461 2 -486 1 -502 -17z m521 -259 c8 -13 -5 -13 -25 0 -13
8 -13 10 2 10 9 0 20 -4 23 -10z m25 -1034 c0 -2 -8 -10 -17 -17 -16 -13 -17
-12 -4 4 13 16 21 21 21 13z m-60 -26 c0 -5 -4 -10 -9 -10 -6 0 -13 5 -16 10
-3 6 1 10 9 10 9 0 16 -4 16 -10z m85 -20 c3 -5 2 -10 -4 -10 -5 0 -13 5 -16
10 -3 6 -2 10 4 10 5 0 13 -4 16 -10z m-46 -31 c-13 -3 -31 -3 -39 0 -12 4
-12 6 3 9 9 2 15 8 11 13 -3 5 7 4 22 -3 l27 -13 -24 -6z"/>
<path d="M3446 3088 c-26 -36 -7 -68 324 -548 47 -69 97 -143 110 -165 l25
-40 0 -342 c0 -305 2 -344 17 -359 14 -14 39 -16 159 -16 133 0 145 2 160 21
16 19 17 55 17 339 0 174 1 328 1 342 1 14 28 63 61 110 33 47 65 93 72 104 7
10 25 35 39 55 91 129 247 364 271 409 54 103 43 110 -153 110 -140 0 -152 -2
-174 -22 -12 -11 -80 -106 -150 -211 -70 -104 -131 -192 -137 -194 -5 -2 -25
14 -44 35 -34 38 -154 209 -154 220 0 13 -102 154 -118 163 -9 5 -83 9 -165 9
-136 0 -148 -2 -161 -20z m224 -103 c10 -12 9 -16 -4 -21 -9 -3 -13 -10 -10
-15 3 -5 1 -9 -4 -9 -13 0 -23 27 -16 45 8 19 18 19 34 0z m850 -26 c0 -6 -4
-7 -10 -4 -5 3 -10 11 -10 16 0 6 5 7 10 4 6 -3 10 -11 10 -16z m-880 -33 c0
-2 -8 -10 -17 -17 -16 -13 -17 -12 -4 4 13 16 21 21 21 13z m497 -732 c-3 -3
-12 -4 -19 -1 -8 3 -5 6 6 6 11 1 17 -2 13 -5z m-2 -35 c11 -17 -1 -21 -15 -4
-8 9 -8 15 -2 15 6 0 14 -5 17 -11z m-100 -99 c3 -5 12 -7 20 -3 9 3 15 -1 15
-10 0 -9 8 -20 17 -26 14 -7 15 -12 4 -25 -7 -8 -10 -24 -6 -36 7 -21 25 -28
25 -8 0 6 3 9 6 6 8 -9 -19 -48 -34 -48 -7 0 -11 4 -8 9 8 13 -4 42 -15 35 -5
-3 -9 6 -9 20 0 14 4 26 10 26 5 0 7 7 4 15 -4 8 -11 15 -18 15 -6 0 -17 9
-24 20 -7 11 -8 20 -3 20 6 0 12 -4 16 -10z m119 -71 c-8 -13 -24 -1 -24 18 0
13 3 13 15 3 8 -7 12 -16 9 -21z m-84 -140 c0 -9 6 -16 14 -16 8 0 12 6 9 14
-3 7 1 13 10 13 10 0 13 -7 10 -20 -3 -11 -12 -20 -21 -20 -8 0 -13 -3 -9 -6
3 -4 0 -12 -6 -19 -14 -14 -78 -15 -70 -1 3 4 -1 13 -8 18 -9 6 -3 7 19 3 34
-7 41 5 22 35 -6 9 -5 19 2 28 9 11 13 11 19 0 5 -7 9 -20 9 -29z m95 31 c-3
-5 -12 -10 -18 -10 -7 0 -6 4 3 10 19 12 23 12 15 0z"/>
<path d="M1609 3083 c-19 -22 -21 -1426 -3 -1451 17 -24 298 -26 318 -2 11 12
14 141 14 725 0 626 -2 712 -16 728 -13 15 -34 17 -157 17 -120 0 -145 -3
-156 -17z"/>
<path d="M180 1418 c-74 -21 -120 -75 -120 -142 0 -72 32 -112 141 -175 35
-20 70 -48 76 -62 11 -21 10 -26 -8 -41 -27 -23 -46 -23 -92 2 -52 28 -74 25
-97 -12 -34 -56 -24 -76 54 -102 105 -36 224 -10 266 58 61 99 24 183 -112
255 -99 53 -115 73 -83 105 17 16 47 11 103 -18 42 -21 49 -20 77 10 62 67 14
109 -145 129 -14 1 -41 -2 -60 -7z"/>
<path d="M721 1417 c-17 -22 -241 -508 -241 -526 0 -13 10 -16 53 -16 59 0 82
13 91 50 7 26 7 26 106 26 120 0 115 2 129 -36 7 -19 15 -36 19 -36 40 -7 115
-3 118 6 6 15 -14 61 -138 322 -55 116 -106 214 -113 217 -8 3 -18 -1 -24 -7z
m38 -280 c26 -69 20 -80 -40 -67 l-26 5 21 47 c21 48 31 51 45 15z"/>
<path d="M3471 1417 c-5 -7 -23 -42 -39 -77 -16 -36 -51 -110 -77 -165 -117
-248 -135 -293 -117 -296 76 -12 132 3 132 35 0 27 29 36 121 38 93 1 93 1
111 -28 10 -16 19 -33 21 -38 5 -15 118 -14 124 0 3 8 -27 82 -65 166 -172
374 -185 396 -211 365z m58 -333 c1 -11 -56 -23 -77 -16 -11 3 10 65 31 91 9
11 15 6 28 -25 10 -22 18 -44 18 -50z"/>
<path d="M3916 1414 c-46 -17 -73 -38 -92 -76 -20 -38 -17 -108 4 -140 18 -28
90 -87 105 -88 5 0 29 -14 53 -31 37 -25 45 -36 42 -57 -5 -41 -44 -50 -100
-23 -60 28 -75 27 -98 -11 -29 -49 -25 -65 23 -89 63 -33 172 -38 229 -10 103
50 125 178 43 253 -14 14 -54 40 -88 58 -79 41 -99 59 -95 83 5 34 40 38 97
11 62 -30 86 -25 109 22 21 45 10 63 -51 86 -63 24 -135 28 -181 12z"/>
<path d="M4385 1417 c-138 -47 -157 -202 -35 -278 19 -11 57 -34 83 -50 59
-36 74 -67 45 -91 -26 -23 -45 -23 -92 3 -53 28 -77 22 -100 -25 -24 -49 -15
-65 50 -88 119 -42 237 -12 281 73 45 83 12 164 -90 221 -107 60 -122 73 -122
97 0 38 34 43 95 15 29 -13 61 -22 71 -19 24 8 51 52 47 78 -7 47 -160 89
-233 64z"/>
<path d="M977 1414 c-3 -4 2 -27 12 -53 32 -81 213 -465 227 -480 16 -18 42
-8 53 21 5 13 35 77 66 143 132 276 156 330 158 350 2 18 -5 20 -59 23 l-62 3
-26 -47 c-14 -25 -45 -89 -67 -141 -48 -109 -39 -114 -111 50 -26 60 -52 115
-59 123 -12 14 -119 21 -132 8z m84 -67 c-10 -9 -11 -8 -5 6 3 10 9 15 12 12
3 -3 0 -11 -7 -18z"/>
<path d="M1589 1373 c-3 -259 1 -487 10 -492 5 -4 83 -6 173 -6 l163 0 3 58
c3 49 1 57 -15 58 -10 0 -61 1 -113 2 l-94 2 -1 48 -1 47 93 0 c51 0 93 3 94
8 13 110 12 111 -95 114 l-91 3 -1 30 c-1 53 2 56 85 54 42 0 91 0 109 0 l33
1 -3 58 -3 57 -172 3 -173 2 -1 -47z"/>
<path d="M2070 1151 c0 -206 3 -270 13 -273 10 -4 87 -3 108 1 4 0 7 43 6 94
0 51 3 98 6 104 17 27 42 1 90 -93 28 -54 52 -101 53 -103 2 -2 31 -5 64 -6
44 -2 63 1 67 11 3 7 -19 57 -48 111 -31 58 -48 98 -41 101 23 7 63 45 77 72
33 64 25 150 -18 191 -57 55 -72 59 -229 59 l-148 0 0 -269z m280 130 c30 -57
-5 -90 -92 -89 l-58 1 0 54 0 53 70 0 c58 0 71 -3 80 -19z"/>
<path d="M2855 1407 c-3 -7 -4 -129 -3 -272 l3 -260 50 -1 c28 -1 55 3 62 8 7
6 12 32 12 61 -1 29 -1 68 0 88 l1 37 73 4 c83 4 113 20 148 83 17 29 23 56
23 97 0 49 -5 63 -30 95 -50 62 -82 73 -217 73 -86 0 -119 -3 -122 -13z m230
-123 c19 -20 19 -58 -1 -78 -17 -18 -103 -22 -105 -6 0 6 -1 24 -1 40 0 58 0
57 47 58 27 1 50 -5 60 -14z"/>
</g>
</svg>
